<?xml version="1.0" encoding="UTF-8"?>
<!-- Generator: Adobe Illustrator 19.1.0, SVG Export Plug-In . SVG Version: 6.00 Build 0)  -->
<svg version="1.1" id="Layer_1" xmlns="http://www.w3.org/2000/svg" xmlns:xlink="http://www.w3.org/1999/xlink" x="0px" y="0px" viewBox="0 0 36.2 20.6" style="enable-background:new 0 0 36.2 20.6;" xml:space="preserve">
<style type="text/css">
	.st0{fill:#54284E;}
</style>
<path class="st0" d="M25.9,20.6h2.7c0-0.2,0.1-0.4,0-0.6c-0.1-0.4,0.1-0.8,0.4-1c0.3-0.2,0.5-0.6,0.6-0.9c0.1-0.4,0.2-0.8,0.4-1.2  c0.4-0.7,0.9-1.4,1.3-2.2c0.1-0.1,0.2-0.3,0.3-0.4c0.2,0.4,0.4,0.9,0.4,1.3c-0.1,0.7-0.1,1.3-0.2,2c0,0.4-0.2,0.8-0.6,1  c-0.7,0.5-1.1,1.2-1.4,2h2.7c0-0.2,0.1-0.4,0.1-0.6c0-0.3,0-0.6,0.3-0.9c0.3-0.2,0.3-0.4,0.4-0.7c0.2-1.7,0.6-3.3,1.2-4.9  c0.2-0.5,0.2-0.9,0-1.4c-0.4-0.8-0.5-1.7-0.6-2.5c-0.1-1.4,0.1-2.8,0.4-4.2c0.1-0.4,0.2-0.9,0.3-1.3c0.1,0.1,0.2,0.2,0.2,0.3  c0.1,0.4,0.2,0.8,0.2,1.1c0,1.4,0.1,2.7,0.1,4.1c0,0.1,0,0.2,0,0.2c-0.4,0.4-0.4,0.9-0.3,1.4c0.1,0.8,0.6,1.4,1.3,1.9  c0.1-0.5,0.2-0.9,0.2-1.3c0.1-0.6,0-1.3-0.5-1.8c-0.2-0.2-0.2-0.4-0.2-0.6c0-1.6,0-3.2,0-4.9c0-1.1-0.4-2-1.6-2.4  c-0.1,0-0.1-0.1-0.2-0.1c-0.4-0.2-0.8-0.5-1.3-0.6c-1-0.3-2-0.4-3-0.3c-1.7,0.1-3.5,0.3-5.2,0.4c-1.9,0.1-3.8,0.1-5.7-0.1  c-0.9-0.1-1.8-0.2-2.7-0.3C14.4,1,13,1.3,11.7,1.4c-1.1,0.1-2.2,0-3.2-0.3c0-0.1,0.1-0.2,0.1-0.3C8.7,0.3,8.5,0,8,0.1  c-0.3,0-0.5,0.2-0.7,0.3C7.2,0.4,7.1,0.5,7,0.5C6.4,0.3,5.9,0.2,5.3,0H4.4C3.7,0.2,3.2,0.6,2.8,1.2C1.9,0.7,0.9,0.5,0,1.2v0.3  C0.6,2,1.2,2.6,2.2,2.5C2.1,2.8,2.1,3.1,2,3.3C1.9,4.1,1.9,4.8,1.5,5.5C1.1,6.4,1.1,6.5,1.9,7.1c0.4,0.3,0.7,0.4,1.2,0.3  c0.7-0.2,1.5-0.4,2.2-0.6C5.6,6.8,5.8,6.8,5.9,7c1,1.1,1.8,2.3,2.4,3.6c0.3,0.6,0.5,1.3,0.8,1.9c0.2,0.5,0.5,0.9,1,1.2  c0.1,0.1,0.2,0.2,0.2,0.3c0.1,0.7,0.1,1.4,0.3,2.1c0.2,1,0,1.8-0.7,2.5c-0.5,0.6-1,1.3-1.2,2h2.5c0-0.2,0-0.4,0-0.7  c0-0.4,0.1-0.7,0.4-1c0.3-0.2,0.4-0.5,0.3-0.8c-0.1-1,0.2-1.9,0.5-2.8c0-0.1,0.1-0.1,0.1-0.2c0.1,0.6,0.2,1.2,0.4,1.8  c0.3,0.9,0.1,1.6-0.6,2.3c-0.1,0.1-0.2,0.1-0.2,0.2c-0.2,0.4-0.4,0.8-0.6,1.2h2.4c0-0.2,0.1-0.5,0-0.7c0-0.3,0.1-0.6,0.3-0.9  c0.1-0.2,0.2-0.4,0.2-0.6c0-0.2,0-0.5,0-0.7c0.1-0.8,0.2-1.7,0.3-2.5c0.1-0.5,0.2-1,0.3-1.5c0-0.2,0.1-0.3,0.3-0.3  c0.6-0.1,1.1-0.2,1.7-0.2c0.9,0,1.7,0.2,2.6,0.3c1.9,0.1,3.6-0.3,5.4-0.8c0.1,0,0.3-0.1,0.4,0c0.6,0.2,1.1,0.5,1.6,0.6  c0.1,0.2,0.2,0.4,0.3,0.6c0.2-0.1,0.3-0.3,0.5-0.4c0,0,0.1,0.1,0.1,0.2c0.1,0.1,0.2,0.2,0.2,0.3c0.1-0.1,0.2-0.2,0.3-0.3  c0,0,0-0.1,0-0.2c0.6,0,0.6,0,0.6,0.6c0,0.1,0,0.2,0,0.4c-0.1,1.3-0.5,2.5-1.2,3.6c-0.2,0.3-0.4,0.6-0.7,0.7  C26.4,19.2,26.2,19.9,25.9,20.6"/>
</svg>